# xmcd
#
# Track frame offsets:
#	150
#	20377
#	37797
#	49600
#	62992
#	78757
#	91065
#	105722
#	118382
#	131780
#	146360
#	161272
#	174365
#	185577
#	197225
#	209992
#	224120
#	233862
#	253285
#	270085
#	288035
#	302590
#	313537
#	325117
#	337170
#
# Disc length: 4670 seconds
#
# Revision: 1
# Processed by: cddbd v1.5.1PL2 Copyright (c) Steve Scherf et al.
# Submitted via: audiograbber 1.83.01
#
DISCID=6e123c19
DTITLE=Various Artist - The Dutch Country Top 100 vol 1-3
DYEAR=1900
DGENRE=Country
TTITLE0=Ruud Hermans - Keep asking myself
TTITLE1=Ilse Delange and Cash on Delivery - No more you
TTITLE2=Moonlight Riders - Looking at him
TTITLE3=Captain Gumbo - Allons a lafayette
TTITLE4=Jany Szabo - If i was her
TTITLE5=West Verginia Railroad - Dance the last dance
TTITLE6=Busted - Anything for love
TTITLE7=Desperado - I should have been me
TTITLE8=Sommerset - Almost persuaded
TTITLE9=Dick van Altena - Dom diedelie dom
TTITLE10=Ben and Carmen Steneker - Run away
TTITLE11=Bulletproof - Don't rock the jukebox
TTITLE12=4 wheel drive - Four wheel drive
TTITLE13=Terry White - Hey good lookin'
TTITLE14=Major Dundee - Old friends
TTITLE15=Texas Renegade - Cowboys of the 90's
TTITLE16=Revival Band, the - Bad Moon Rising
TTITLE17=Tumbleweeds - Where did we go right
TTITLE18=Cornell Grant - Wine into water
TTITLE19=Specs Hildebrand and Living Room Band - Old Habbits
TTITLE20=Hans de Jong - Ready for the times to go better
TTITLE21=Moonlight Riders - Rolling again
TTITLE22=West Verginia Railroad - Deep River
TTITLE23=Cash on Delivery - Mister lonesome
TTITLE24=Louisiano Radio - I shall be released
EXTD=
EXTT0=
EXTT1=
EXTT2=
EXTT3=
EXTT4=
EXTT5=
EXTT6=
EXTT7=
EXTT8=
EXTT9=
EXTT10=
EXTT11=
EXTT12=
EXTT13=
EXTT14=
EXTT15=
EXTT16=
EXTT17=
EXTT18=
EXTT19=
EXTT20=
EXTT21=
EXTT22=
EXTT23=
EXTT24=
PLAYORDER=
